<svg xmlns="http://www.w3.org/2000/svg"  viewBox="0 0 68 68" width="180px" height="180px"><path d="M 41.775391 2.0078125 C 40.887695 2.0609131 39.958984 2.3520508 39.050781 2.8789062 C 36.024414 4.6250001 33.663086 8.7236328 33.673828 12.208984 L 33.679688 14.941406 C 33.088468 15.070909 32.5301 15.258744 32.035156 15.542969 L 22.857422 20.892578 C 21.875 21.458008 21.333984 22.237305 21.333984 23.083984 C 21.333976 23.091255 21.335866 23.100162 21.335938 23.107422 L 21.300781 35.910156 C 21.300781 36.761719 21.844727 37.547852 22.833984 38.123047 C 23.061279 38.254883 23.307205 38.371765 23.568359 38.472656 C 24.378973 38.791549 25.306312 38.953125 26.234375 38.953125 C 27.457031 38.953125 28.676758 38.676758 29.626953 38.123047 L 38.808594 32.779297 C 39.782227 32.211914 40.318359 31.43457 40.318359 30.59375 L 40.355469 17.808594 C 40.355878 17.79215 40.359375 17.776263 40.359375 17.759766 C 40.358398 16.905273 39.80957 16.119142 38.810547 15.541016 C 38.542587 15.390518 38.258617 15.270722 37.966797 15.167969 L 37.957031 12.197266 C 37.951172 10.175781 39.432617 7.6103515 41.193359 6.5957031 C 41.751953 6.2705078 42.067383 6.2783204 42.103516 6.2773438 C 42.146484 6.3154296 42.308594 6.586914 42.3125 7.2148438 L 42.322266 12.435547 C 42.322266 13.004883 42.628906 13.506836 43.164062 13.814453 C 43.90918 14.240234 45.032227 14.237305 45.779297 13.806641 C 46.30957 13.496094 46.610352 12.992188 46.605469 12.421875 L 46.595703 7.203125 C 46.588867 5.1152341 45.736328 3.4267578 44.255859 2.5703125 C 43.509766 2.140625 42.663086 1.9547119 41.775391 2.0078125 z M 42.068359 2.8007812 C 42.711914 2.8007812 43.318359 2.9541012 43.855469 3.2636719 C 45.082031 3.9726563 45.790039 5.4101562 45.794922 7.2050781 L 45.804688 12.425781 L 45.804688 12.429688 C 45.80957 12.787109 45.573242 13 45.376953 13.115234 C 44.875977 13.402344 44.05957 13.405273 43.560547 13.119141 C 43.360352 13.003906 43.123047 12.791992 43.123047 12.433594 L 43.113281 7.2109375 C 43.107422 6.4111328 42.883789 5.8076172 42.515625 5.59375 C 42.138672 5.3789062 41.494141 5.493164 40.791016 5.9023438 C 38.814453 7.0419922 37.150391 9.9267578 37.15625 12.199219 L 37.171875 17.417969 C 37.171875 17.671422 37.032056 17.887866 36.794922 18.041016 C 36.735443 18.079315 36.653414 18.100847 36.582031 18.130859 C 36.510775 18.160864 36.449006 18.19951 36.367188 18.220703 C 36.344347 18.226594 36.314618 18.225303 36.291016 18.230469 C 36.145337 18.261674 35.991787 18.286481 35.820312 18.287109 C 35.135978 18.287109 34.630367 18.016921 34.511719 17.611328 C 34.511719 17.611328 34.511719 17.609375 34.511719 17.609375 C 34.509367 17.601253 34.509853 17.592214 34.507812 17.583984 C 34.495854 17.533868 34.486328 17.483501 34.486328 17.429688 L 34.486328 15.25 C 34.486328 15.240475 34.481145 15.232088 34.480469 15.222656 L 34.474609 12.207031 C 34.463867 8.9814454 36.648437 5.1884763 39.451172 3.5722656 C 40.333984 3.0595703 41.232422 2.8007812 42.068359 2.8007812 z M 33.679688 15.742188 L 33.683594 17.431641 C 33.684043 17.495653 33.699204 17.55386 33.707031 17.615234 C 33.813179 18.490421 34.646168 19.089844 35.830078 19.089844 C 35.988037 19.088135 36.142033 19.076668 36.287109 19.054688 C 36.43147 19.032719 36.569572 19.001495 36.699219 18.960938 C 36.827949 18.920563 36.950204 18.871702 37.0625 18.814453 C 37.0625 18.814453 37.064453 18.8125 37.064453 18.8125 C 37.289506 18.697307 37.480091 18.548446 37.626953 18.373047 C 37.850431 18.108606 37.976562 17.784161 37.976562 17.417969 L 37.96875 16.017578 C 38.123047 16.082031 38.272461 16.155273 38.416016 16.236328 C 39.14715 16.659106 39.550954 17.195556 39.556641 17.748047 C 39.556537 17.751516 39.554703 17.754322 39.554688 17.757812 L 39.554688 17.765625 C 39.551758 18.310547 39.15625 18.839844 38.441406 19.253906 L 34.304688 21.662109 L 29.263672 24.59375 C 28.668254 24.940284 27.935337 25.156004 27.166016 25.251953 C 27.155452 25.252427 27.145304 25.248625 27.134766 25.25 C 26.783282 25.292575 26.429401 25.30998 26.082031 25.302734 C 26.069609 25.302415 26.05734 25.301164 26.044922 25.300781 C 25.738759 25.29284 25.440576 25.259704 25.148438 25.214844 C 25.08096 25.204152 25.013945 25.192336 24.947266 25.179688 C 24.715931 25.136845 24.494361 25.079179 24.279297 25.013672 C 24.196014 24.987994 24.110084 24.966606 24.029297 24.9375 C 23.759077 24.840925 23.500737 24.730417 23.271484 24.597656 C 23.269307 24.596391 23.267796 24.595018 23.265625 24.59375 C 23.084347 24.489297 22.924884 24.376905 22.785156 24.259766 C 22.363007 23.902206 22.136719 23.49292 22.136719 23.076172 C 22.136719 23.074023 22.134799 23.072453 22.134766 23.070312 C 22.134766 23.070312 22.134766 23.068359 22.134766 23.068359 C 22.142237 22.525069 22.5391 21.999947 23.257812 21.585938 L 32.435547 16.236328 C 32.806918 16.023422 33.23077 15.856412 33.679688 15.742188 z M 39.550781 19.431641 L 39.517578 30.59375 C 39.517578 31.138672 39.124023 31.669924 38.40625 32.087891 L 29.224609 37.431641 C 28.748475 37.708962 28.182233 37.896743 27.582031 38.013672 L 27.582031 25.998047 C 28.337602 25.870031 29.058668 25.641846 29.664062 25.289062 L 38.84375 19.945312 C 38.84375 19.945312 38.845703 19.945312 38.845703 19.945312 C 39.104821 19.795133 39.328032 19.628441 39.523438 19.451172 C 39.531273 19.444078 39.543046 19.438775 39.550781 19.431641 z M 22.132812 24.746094 C 22.141925 24.754693 22.152847 24.762938 22.162109 24.771484 C 22.208475 24.813965 22.26048 24.853451 22.310547 24.894531 C 22.467882 25.024669 22.639265 25.14934 22.832031 25.263672 C 22.844376 25.270945 22.852748 25.279904 22.865234 25.287109 C 23.104248 25.425293 23.360535 25.546753 23.628906 25.650391 C 23.653306 25.659866 23.680472 25.66464 23.705078 25.673828 C 23.74966 25.690159 23.798372 25.701364 23.84375 25.716797 C 24.110424 25.809372 24.385284 25.887471 24.669922 25.947266 C 24.677046 25.948718 24.684271 25.949739 24.691406 25.951172 C 25.368427 26.091282 26.078042 26.136685 26.78125 26.091797 L 26.78125 38.115234 C 26.13715 38.163302 25.493456 38.127232 24.894531 38.015625 C 24.879027 38.012634 24.863112 38.01091 24.847656 38.007812 C 24.584155 37.956749 24.335132 37.885176 24.09375 37.804688 C 24.05494 37.791479 24.01283 37.783516 23.974609 37.769531 C 23.710279 37.67459 23.461232 37.561612 23.236328 37.431641 C 22.503906 37.005859 22.101562 36.466797 22.101562 35.912109 L 22.132812 24.746094 z M 34.419922 26.611328 C 34.285803 26.623906 34.137941 26.673748 33.982422 26.763672 C 33.928131 26.795063 33.872372 26.831528 33.816406 26.873047 C 33.380768 27.197117 33.013775 27.803493 32.914062 28.355469 C 32.834957 28.791084 32.909256 29.12253 33.087891 29.308594 C 33.140423 29.358679 33.165165 29.440521 33.144531 29.548828 L 32.814453 31.443359 C 32.773228 31.672165 32.908527 31.786482 33.089844 31.681641 L 34.914062 30.626953 C 35.095383 30.522114 35.229981 30.250719 35.1875 30.070312 L 34.849609 28.5625 C 34.828434 28.478365 34.852219 28.368385 34.904297 28.257812 C 35.032719 27.974665 35.10429 27.675116 35.103516 27.402344 C 35.102005 26.868121 34.822279 26.573595 34.419922 26.611328 z M 47.189453 30.761719 C 46.893555 30.784912 46.581055 30.886719 46.263672 31.068359 L 18.324219 47.228516 C 17.782227 47.545898 17.269531 48.080078 16.880859 48.734375 C 16.464844 49.432617 16.237305 50.186523 16.240234 50.855469 L 16.267578 62.529297 C 16.267578 63.258789 16.537109 63.813477 17.021484 64.089844 L 19.970703 65.808594 C 19.971905 65.809395 19.973399 65.809746 19.974609 65.810547 C 19.979834 65.813648 19.983005 65.819229 19.988281 65.822266 C 20.197266 65.942383 20.430664 66.001953 20.679688 66.001953 C 21.010742 66.001953 21.369141 65.895508 21.732422 65.685547 L 49.669922 49.525391 C 50.84668 48.844727 51.763672 47.251953 51.759766 45.900391 L 51.730469 34.222656 C 51.727666 33.525833 51.477114 32.994959 51.029297 32.705078 C 51.013043 32.691798 51.001153 32.674957 50.982422 32.664062 C 50.982422 32.664062 50.980469 32.662109 50.980469 32.662109 L 48.017578 30.935547 L 48.011719 30.933594 C 47.764648 30.794922 47.485352 30.738525 47.189453 30.761719 z M 47.193359 31.564453 C 47.355469 31.542114 47.499023 31.563477 47.617188 31.628906 L 49.433594 32.6875 C 49.378075 32.714466 49.323097 32.745989 49.267578 32.777344 C 49.253939 32.784964 49.240218 32.787005 49.226562 32.794922 L 21.291016 48.955078 L 21.289062 48.955078 C 21.080054 49.076028 20.884312 49.233884 20.695312 49.40625 C 20.662114 49.436701 20.630264 49.466069 20.597656 49.498047 C 20.402796 49.687907 20.221142 49.897314 20.058594 50.126953 L 17.791016 48.806641 C 18.069336 48.422852 18.393555 48.114258 18.726562 47.919922 L 46.662109 31.761719 C 46.850586 31.652832 47.03125 31.586792 47.193359 31.564453 z M 50.382812 33.289062 C 50.453094 33.299454 50.51709 33.321045 50.574219 33.353516 C 50.799805 33.483399 50.928711 33.800781 50.929688 34.224609 L 50.958984 45.902344 C 50.962891 46.958008 50.189453 48.300781 49.269531 48.832031 L 21.332031 64.992188 C 20.959058 65.208784 20.616302 65.258129 20.392578 65.130859 C 20.390932 65.129865 20.390338 65.127927 20.388672 65.126953 L 20.378906 65.121094 L 20.376953 65.119141 C 20.37231 65.116363 20.369792 65.110363 20.365234 65.107422 C 20.316103 65.075719 20.271296 65.038005 20.232422 64.988281 C 20.191295 64.935676 20.155738 64.873381 20.126953 64.802734 C 20.096741 64.728149 20.074326 64.644562 20.058594 64.552734 C 20.042964 64.461503 20.033549 64.361528 20.033203 64.255859 L 20.033203 64.253906 L 20.033203 64.226562 L 20.005859 52.570312 C 20.003906 52.312988 20.051147 52.028687 20.140625 51.738281 C 20.182934 51.600964 20.23422 51.4623 20.294922 51.324219 C 20.296086 51.321569 20.297658 51.319054 20.298828 51.316406 C 20.321063 51.26609 20.348679 51.21766 20.373047 51.167969 C 20.42012 51.072084 20.466225 50.976511 20.521484 50.882812 C 20.542847 50.846484 20.567443 50.812986 20.589844 50.777344 C 20.650578 50.680859 20.713237 50.584637 20.779297 50.496094 C 20.812092 50.452271 20.848562 50.413147 20.882812 50.371094 C 20.939694 50.301076 20.995027 50.229575 21.054688 50.166016 C 21.101073 50.116723 21.150992 50.074813 21.199219 50.029297 C 21.256753 49.974907 21.313892 49.917005 21.373047 49.869141 C 21.407064 49.841616 21.442123 49.822121 21.476562 49.796875 C 21.547061 49.745265 21.616828 49.690435 21.689453 49.648438 L 21.691406 49.648438 L 49.630859 33.488281 C 49.720569 33.435483 49.807967 33.39428 49.892578 33.361328 C 49.895119 33.360339 49.897856 33.358393 49.900391 33.357422 C 49.901829 33.356885 49.90286 33.355999 49.904297 33.355469 C 50.079351 33.290809 50.243393 33.268449 50.382812 33.289062 z M 45.869141 40.275391 C 45.811689 40.281337 45.749907 40.303427 45.683594 40.341797 C 45.555843 40.415714 45.442814 40.53661 45.34375 40.703125 C 45.244671 40.864185 45.198803 41.020805 45.199219 41.167969 C 45.19936 41.217026 45.286098 41.834118 45.464844 43.013672 C 44.591663 42.699997 44.135326 42.543217 44.087891 42.548828 C 44.012001 42.543602 43.937077 42.559685 43.861328 42.603516 C 43.686203 42.704849 43.54388 42.879044 43.435547 43.132812 C 43.393169 43.244686 43.374676 43.354286 43.375 43.46875 C 43.375599 43.681324 43.451866 43.79612 43.603516 43.806641 L 45.238281 43.597656 L 43.607422 45.271484 C 43.456299 45.446281 43.38221 45.642899 43.382812 45.855469 C 43.383137 45.969933 43.402439 46.058552 43.445312 46.121094 C 43.554726 46.248867 43.701378 46.255989 43.890625 46.146484 C 43.966377 46.102653 44.036266 46.044441 44.097656 45.970703 C 44.144955 45.916035 44.598228 45.234016 45.466797 43.917969 C 45.295284 45.294739 45.212753 46.009537 45.212891 46.058594 C 45.213322 46.211208 45.259693 46.307861 45.359375 46.359375 C 45.459046 46.405434 45.573425 46.39423 45.701172 46.320312 C 45.833801 46.243569 45.947796 46.123951 46.046875 45.962891 C 46.146069 45.796303 46.191837 45.642849 46.191406 45.490234 C 46.191265 45.441177 46.099766 44.829201 45.925781 43.652344 C 46.79895 43.960571 47.255409 44.117271 47.302734 44.117188 C 47.364338 44.119755 47.43597 44.094616 47.511719 44.050781 C 47.696342 43.943954 47.84687 43.763462 47.955078 43.509766 C 47.997425 43.386993 48.015888 43.284065 48.015625 43.191406 C 48.015022 42.978832 47.938904 42.869411 47.787109 42.853516 L 46.152344 43.068359 L 47.783203 41.388672 C 47.93438 41.18655 48.01038 40.98365 48.009766 40.765625 C 48.009518 40.678417 47.99017 40.596886 47.947266 40.523438 C 47.837982 40.395592 47.694656 40.384998 47.519531 40.486328 C 47.420158 40.543831 47.344959 40.614143 47.292969 40.693359 C 47.245785 40.7425 46.792381 41.426544 45.923828 42.748047 C 46.090576 41.368572 46.177875 40.650616 46.177734 40.601562 C 46.177319 40.454395 46.131042 40.350674 46.03125 40.304688 C 45.981409 40.278933 45.926592 40.269444 45.869141 40.275391 z M 39.0625 44.214844 C 39.005626 44.220455 38.945156 44.240963 38.878906 44.279297 C 38.74641 44.355965 38.633377 44.47686 38.539062 44.640625 C 38.439983 44.801685 38.392162 44.960258 38.392578 45.107422 C 38.392719 45.156479 38.479454 45.771614 38.658203 46.951172 C 37.785019 46.637493 37.32589 46.483467 37.283203 46.486328 C 37.207314 46.481102 37.130436 46.497181 37.054688 46.541016 C 36.879562 46.642345 36.739193 46.818497 36.630859 47.072266 C 36.588482 47.184139 36.564129 47.295689 36.564453 47.410156 C 36.565056 47.622726 36.64119 47.735645 36.792969 47.746094 L 38.427734 47.537109 L 36.796875 49.212891 C 36.645622 49.38776 36.571663 49.584301 36.572266 49.796875 C 36.57259 49.911335 36.595798 49.996052 36.638672 50.058594 C 36.748085 50.186367 36.895454 50.194717 37.080078 50.087891 C 37.155827 50.04406 37.226826 49.986641 37.292969 49.910156 C 37.335518 49.858238 37.791584 49.17152 38.660156 47.855469 C 38.48864 49.232243 38.406109 49.947037 38.40625 49.996094 C 38.406681 50.148708 38.455006 50.247314 38.554688 50.298828 C 38.649605 50.347637 38.763988 50.336433 38.896484 50.259766 C 39.028984 50.183098 39.141998 50.062607 39.236328 49.904297 C 39.335392 49.737785 39.381294 49.584259 39.380859 49.431641 C 39.380722 49.382587 39.293968 48.767857 39.115234 47.59375 C 39.988403 47.901978 40.449486 48.056004 40.492188 48.058594 C 40.558544 48.058411 40.62933 48.034069 40.705078 47.990234 C 40.889702 47.883408 41.036194 47.704941 41.144531 47.451172 C 41.186878 47.328396 41.209248 47.221569 41.208984 47.128906 C 41.208385 46.916336 41.132133 46.808941 40.980469 46.792969 L 39.345703 47.005859 L 40.976562 45.326172 C 41.127609 45.124123 41.203739 44.921146 41.203125 44.703125 C 41.202877 44.615917 41.17767 44.538292 41.134766 44.464844 C 41.025349 44.33707 40.884109 44.326405 40.708984 44.427734 C 40.614361 44.482487 40.539032 44.552872 40.482422 44.634766 C 40.439857 44.681233 39.981838 45.365997 39.113281 46.6875 C 39.284782 45.305279 39.367325 44.592026 39.367188 44.542969 C 39.366772 44.395802 39.32037 44.292152 39.220703 44.246094 C 39.173239 44.218964 39.119374 44.209232 39.0625 44.214844 z M 32.253906 48.154297 C 32.196439 48.160253 32.134609 48.182369 32.068359 48.220703 C 31.940483 48.294693 31.825756 48.415443 31.726562 48.582031 C 31.627481 48.743092 31.581615 48.899708 31.582031 49.046875 C 31.58217 49.095932 31.668911 49.71302 31.847656 50.892578 C 30.974476 50.578899 30.515215 50.424946 30.472656 50.427734 C 30.396769 50.422508 30.319891 50.438591 30.244141 50.482422 C 30.069016 50.583755 29.926693 50.75795 29.818359 51.011719 C 29.776108 51.12352 29.753582 51.235146 29.753906 51.349609 C 29.754507 51.56218 29.8298 51.677849 29.986328 51.685547 L 31.621094 51.476562 L 29.992188 53.150391 C 29.836184 53.328007 29.759165 53.525707 29.759766 53.738281 C 29.76009 53.852745 29.785381 53.937382 29.828125 54 C 29.93754 54.127773 30.084908 54.134174 30.269531 54.027344 C 30.345282 53.983513 30.416281 53.926098 30.482422 53.849609 C 30.524841 53.797768 30.981039 53.112927 31.849609 51.796875 C 31.678095 53.173645 31.595564 53.888447 31.595703 53.9375 C 31.596134 54.090118 31.644457 54.186771 31.744141 54.238281 C 31.843935 54.284267 31.956108 54.273209 32.083984 54.199219 C 32.216484 54.122551 32.330605 54.002857 32.429688 53.841797 C 32.528751 53.675285 32.576603 53.523708 32.576172 53.371094 C 32.576031 53.322037 32.482574 52.708107 32.308594 51.53125 C 33.181759 51.839478 33.638939 51.995457 33.681641 51.998047 C 33.747997 51.997868 33.818783 51.973518 33.894531 51.929688 C 34.079029 51.822933 34.225651 51.646351 34.333984 51.392578 C 34.381084 51.267056 34.398701 51.162971 34.398438 51.070312 C 34.397835 50.857738 34.321587 50.748394 34.169922 50.732422 L 32.535156 50.947266 L 34.166016 49.267578 C 34.317066 49.065529 34.393196 48.862556 34.392578 48.644531 C 34.392334 48.557323 34.371872 48.474998 34.324219 48.404297 C 34.214806 48.276527 34.077465 48.263905 33.902344 48.365234 C 33.802971 48.422737 33.728485 48.494278 33.671875 48.576172 C 33.629314 48.622635 33.175198 49.305454 32.306641 50.626953 C 32.473392 49.247479 32.562637 48.529522 32.5625 48.480469 C 32.562084 48.333302 32.513729 48.229652 32.414062 48.183594 C 32.364222 48.157837 32.311373 48.148341 32.253906 48.154297 z M 17.380859 49.494141 L 19.650391 50.814453 C 19.642668 50.830131 19.636439 50.845623 19.628906 50.861328 C 19.580393 50.96322 19.536998 51.065837 19.496094 51.169922 C 19.466857 51.243634 19.440938 51.316923 19.416016 51.390625 C 19.390434 51.466912 19.36485 51.54251 19.34375 51.619141 C 19.316129 51.718685 19.296666 51.817715 19.277344 51.916016 C 19.264654 51.980866 19.249358 52.044878 19.240234 52.109375 C 19.22353 52.227144 19.216813 52.341084 19.212891 52.455078 C 19.211408 52.495141 19.203039 52.536492 19.203125 52.576172 L 19.232422 64.228516 L 19.232422 64.255859 L 19.232422 64.257812 C 19.232422 64.326172 19.235352 64.391602 19.240234 64.457031 L 17.419922 63.396484 C 17.196289 63.268555 17.068359 62.954102 17.068359 62.529297 L 17.041016 50.851562 C 17.039063 50.438476 17.15918 49.958984 17.380859 49.494141 z M 25.445312 52.09375 C 25.387861 52.099696 25.325657 52.121206 25.261719 52.158203 C 25.129221 52.234871 25.015081 52.354973 24.916016 52.521484 C 24.821686 52.679802 24.771067 52.841114 24.771484 52.988281 C 24.771622 53.037338 24.863111 53.65168 25.037109 54.833984 C 24.163927 54.520306 23.708702 54.362373 23.666016 54.365234 C 23.590126 54.360008 23.509344 54.379997 23.433594 54.423828 C 23.26322 54.522411 23.122007 54.697403 23.013672 54.951172 C 22.966543 55.065796 22.946943 55.174599 22.947266 55.289062 C 22.947868 55.501633 23.024132 55.614479 23.175781 55.625 L 24.810547 55.416016 L 23.179688 57.091797 C 23.028563 57.26659 22.954477 57.463211 22.955078 57.675781 C 22.955402 57.790245 22.973862 57.877705 23.021484 57.9375 C 23.130899 58.065273 23.278395 58.073551 23.462891 57.966797 C 23.538641 57.922966 23.60964 57.865551 23.675781 57.789062 C 23.71833 57.737144 24.17049 57.054333 25.039062 55.738281 C 24.872295 57.112305 24.785017 57.829853 24.785156 57.878906 C 24.785587 58.031525 24.838661 58.125427 24.933594 58.179688 C 25.03326 58.225746 25.146799 58.21534 25.279297 58.138672 C 25.407173 58.064678 25.524811 57.941517 25.619141 57.783203 C 25.718334 57.616615 25.766058 57.463161 25.765625 57.310547 C 25.765488 57.26149 25.676779 56.646763 25.498047 55.472656 C 26.371212 55.780884 26.832296 55.93491 26.875 55.9375 C 26.941357 55.937321 27.012142 55.912972 27.087891 55.869141 C 27.272516 55.76231 27.419138 55.583775 27.527344 55.330078 C 27.569691 55.207302 27.594011 55.100471 27.59375 55.007812 C 27.593147 54.795238 27.515919 54.686977 27.359375 54.673828 L 25.724609 54.888672 L 27.355469 53.207031 C 27.511394 53.002159 27.586555 52.800056 27.585938 52.582031 C 27.585691 52.494823 27.562435 52.417198 27.519531 52.34375 C 27.410246 52.215904 27.26692 52.205307 27.091797 52.306641 C 26.997044 52.361465 26.917223 52.434456 26.865234 52.513672 C 26.822672 52.560139 26.364649 53.244907 25.496094 54.566406 C 25.667595 53.184185 25.750139 52.470932 25.75 52.421875 C 25.749584 52.274712 25.703312 52.170986 25.603516 52.125 C 25.55605 52.09787 25.502764 52.087804 25.445312 52.09375 z"/></svg>